HIERARCHY
ROOT Hips
{
	OFFSET 0.000000 97.167313 0.000000
	CHANNELS 6 Xposition Yposition Zposition Xrotation Yrotation Zrotation
	JOINT Spine
	{
		OFFSET 0.000000 13.784798 0.064400
		CHANNELS 3 Xrotation Yrotation Zrotation
		JOINT Spine1
		{
			OFFSET 0.000000 12.037903 0.404700
			CHANNELS 3 Xrotation Yrotation Zrotation
			JOINT Spine2
			{
				OFFSET 0.000000 17.795601 0.420200
				CHANNELS 3 Xrotation Yrotation Zrotation
				JOINT Neck
				{
					OFFSET 0.000000 39.131302 11.954600
					CHANNELS 3 Xrotation Yrotation Zrotation
					JOINT Head
					{
						OFFSET 0.000000 14.456192 15.627699
						CHANNELS 3 Xrotation Yrotation Zrotation
						JOINT HeadTop_End
						{
							OFFSET 0.000000 15.703506 7.603401
							CHANNELS 3 Xrotation Yrotation Zrotation
							End Site
							{
								OFFSET 0.000000 17.447403 0.000000
							}
						}
					}
				}
				JOINT LeftShoulder
				{
					OFFSET 17.399500 24.608795 1.168800
					CHANNELS 3 Xrotation Yrotation Zrotation
					JOINT LeftArm
					{
						OFFSET 18.980635 5.765305 1.818600
						CHANNELS 3 Xrotation Yrotation Zrotation
						JOINT LeftForeArm
						{
							OFFSET 49.290169 0.000000 0.000000
							CHANNELS 3 Xrotation Yrotation Zrotation
							JOINT LeftHand
							{
								OFFSET 31.562012 0.000000 0.000000
								CHANNELS 3 Xrotation Yrotation Zrotation
								JOINT LeftHandThumb1
								{
									OFFSET 6.133995 -4.388519 7.076070
									CHANNELS 3 Xrotation Yrotation Zrotation
									JOINT LeftHandThumb2
									{
										OFFSET 6.037666 -3.485840 3.485847
										CHANNELS 3 Xrotation Yrotation Zrotation
										JOINT LeftHandThumb3
										{
											OFFSET 6.496506 -3.750763 3.750761
											CHANNELS 3 Xrotation Yrotation Zrotation
											JOINT LeftHandThumb4
											{
												OFFSET 5.616882 -3.242905 3.242910
												CHANNELS 3 Xrotation Yrotation Zrotation
												End Site
												{
													OFFSET -1.254608 7.132141 0.375429
												}
											}
										}
									}
								}
								JOINT LeftHandPinky1
								{
									OFFSET 18.920792 -0.453171 -11.426712
									CHANNELS 3 Xrotation Yrotation Zrotation
									JOINT LeftHandPinky2
									{
										OFFSET 4.919586 0.000000 0.000000
										CHANNELS 3 Xrotation Yrotation Zrotation
										JOINT LeftHandPinky3
										{
											OFFSET 5.233047 0.000000 0.000000
											CHANNELS 3 Xrotation Yrotation Zrotation
											JOINT LeftHandPinky4
											{
												OFFSET 5.571716 0.000000 0.000000
												CHANNELS 3 Xrotation Yrotation Zrotation
												End Site
												{
													OFFSET -3.459808 4.342407 -0.466164
												}
											}
										}
									}
								}
								JOINT LeftHandRing1
								{
									OFFSET 22.726120 -0.094986 -6.500475
									CHANNELS 3 Xrotation Yrotation Zrotation
									JOINT LeftHandRing2
									{
										OFFSET 6.408615 0.000000 0.000000
										CHANNELS 3 Xrotation Yrotation Zrotation
										JOINT LeftHandRing3
										{
											OFFSET 6.150223 0.000000 0.000000
											CHANNELS 3 Xrotation Yrotation Zrotation
											JOINT LeftHandRing4
											{
												OFFSET 6.145386 0.000000 0.000000
												CHANNELS 3 Xrotation Yrotation Zrotation
												End Site
												{
													OFFSET -3.671402 4.923981 -0.202372
												}
											}
										}
									}
								}
								JOINT LeftHandMiddle1
								{
									OFFSET 23.373947 0.000000 0.000001
									CHANNELS 3 Xrotation Yrotation Zrotation
									JOINT LeftHandMiddle2
									{
										OFFSET 6.996567 0.000000 0.000000
										CHANNELS 3 Xrotation Yrotation Zrotation
										JOINT LeftHandMiddle3
										{
											OFFSET 7.015945 0.000000 0.000000
											CHANNELS 3 Xrotation Yrotation Zrotation
											JOINT LeftHandMiddle4
											{
												OFFSET 7.721573 0.000000 0.000000
												CHANNELS 3 Xrotation Yrotation Zrotation
												End Site
												{
													OFFSET -4.651108 6.158463 0.251582
												}
											}
										}
									}
								}
								JOINT LeftHandIndex1
								{
									OFFSET 21.310577 -0.490082 6.209344
									CHANNELS 3 Xrotation Yrotation Zrotation
									JOINT LeftHandIndex2
									{
										OFFSET 7.536453 0.000000 0.000000
										CHANNELS 3 Xrotation Yrotation Zrotation
										JOINT LeftHandIndex3
										{
											OFFSET 7.512344 0.000000 0.000000
											CHANNELS 3 Xrotation Yrotation Zrotation
											JOINT LeftHandIndex4
											{
												OFFSET 10.212402 0.000000 0.000001
												CHANNELS 3 Xrotation Yrotation Zrotation
												End Site
												{
													OFFSET -5.180801 8.690506 1.388433
												}
											}
										}
									}
								}
							}
						}
					}
				}
				JOINT RightShoulder
				{
					OFFSET -17.399500 24.608795 1.168800
					CHANNELS 3 Xrotation Yrotation Zrotation
					JOINT RightArm
					{
						OFFSET -18.980635 5.765305 1.818600
						CHANNELS 3 Xrotation Yrotation Zrotation
						JOINT RightForeArm
						{
							OFFSET -49.290169 0.000000 0.000000
							CHANNELS 3 Xrotation Yrotation Zrotation
							JOINT RightHand
							{
								OFFSET -31.562012 0.000000 0.000000
								CHANNELS 3 Xrotation Yrotation Zrotation
								JOINT RightHandThumb1
								{
									OFFSET -6.133995 -4.388519 7.076070
									CHANNELS 3 Xrotation Yrotation Zrotation
									JOINT RightHandThumb2
									{
										OFFSET -6.037666 -3.485840 3.485847
										CHANNELS 3 Xrotation Yrotation Zrotation
										JOINT RightHandThumb3
										{
											OFFSET -6.496506 -3.750763 3.750761
											CHANNELS 3 Xrotation Yrotation Zrotation
											JOINT RightHandThumb4
											{
												OFFSET -5.616882 -3.242905 3.242910
												CHANNELS 3 Xrotation Yrotation Zrotation
												End Site
												{
													OFFSET 1.254608 7.132141 0.375429
												}
											}
										}
									}
								}
								JOINT RightHandIndex1
								{
									OFFSET -21.310577 -0.490082 6.209344
									CHANNELS 3 Xrotation Yrotation Zrotation
									JOINT RightHandIndex2
									{
										OFFSET -7.536453 0.000000 0.000000
										CHANNELS 3 Xrotation Yrotation Zrotation
										JOINT RightHandIndex3
										{
											OFFSET -7.512344 0.000000 0.000000
											CHANNELS 3 Xrotation Yrotation Zrotation
											JOINT RightHandIndex4
											{
												OFFSET -10.212402 0.000000 0.000001
												CHANNELS 3 Xrotation Yrotation Zrotation
												End Site
												{
													OFFSET 5.180801 8.690506 1.388433
												}
											}
										}
									}
								}
								JOINT RightHandMiddle1
								{
									OFFSET -23.373947 0.000000 0.000001
									CHANNELS 3 Xrotation Yrotation Zrotation
									JOINT RightHandMiddle2
									{
										OFFSET -6.996567 0.000000 0.000000
										CHANNELS 3 Xrotation Yrotation Zrotation
										JOINT RightHandMiddle3
										{
											OFFSET -7.015945 0.000000 0.000000
											CHANNELS 3 Xrotation Yrotation Zrotation
											JOINT RightHandMiddle4
											{
												OFFSET -7.721573 0.000000 0.000000
												CHANNELS 3 Xrotation Yrotation Zrotation
												End Site
												{
													OFFSET 4.651108 6.158463 0.251582
												}
											}
										}
									}
								}
								JOINT RightHandRing1
								{
									OFFSET -22.726120 -0.094986 -6.500475
									CHANNELS 3 Xrotation Yrotation Zrotation
									JOINT RightHandRing2
									{
										OFFSET -6.408615 0.000000 0.000000
										CHANNELS 3 Xrotation Yrotation Zrotation
										JOINT RightHandRing3
										{
											OFFSET -6.150223 0.000000 0.000000
											CHANNELS 3 Xrotation Yrotation Zrotation
											JOINT RightHandRing4
											{
												OFFSET -6.145386 0.000000 0.000000
												CHANNELS 3 Xrotation Yrotation Zrotation
												End Site
												{
													OFFSET 3.671402 4.923981 -0.202372
												}
											}
										}
									}
								}
								JOINT RightHandPinky1
								{
									OFFSET -18.920792 -0.453171 -11.426712
									CHANNELS 3 Xrotation Yrotation Zrotation
									JOINT RightHandPinky2
									{
										OFFSET -4.919586 0.000000 0.000000
										CHANNELS 3 Xrotation Yrotation Zrotation
										JOINT RightHandPinky3
										{
											OFFSET -5.233047 0.000000 0.000000
											CHANNELS 3 Xrotation Yrotation Zrotation
											JOINT RightHandPinky4
											{
												OFFSET -5.571716 0.000000 0.000000
												CHANNELS 3 Xrotation Yrotation Zrotation
												End Site
												{
													OFFSET 3.459808 4.342407 -0.466164
												}
											}
										}
									}
								}
							}
						}
					}
				}
			}
		}
	}
	JOINT LeftUpLeg
	{
		OFFSET 19.899099 -7.885101 -3.429500
		CHANNELS 3 Xrotation Yrotation Zrotation
		JOINT LeftLeg
		{
			OFFSET 1.745560 -36.997807 10.304700
			CHANNELS 3 Xrotation Yrotation Zrotation
			JOINT LeftFoot
			{
				OFFSET -1.745558 -29.803308 -13.615400
				CHANNELS 3 Xrotation Yrotation Zrotation
				JOINT LeftToeBase
				{
					OFFSET 1.181900 -18.539904 15.226099
					CHANNELS 3 Xrotation Yrotation Zrotation
					JOINT LeftToe_End
					{
						OFFSET -0.863701 1.402801 16.534700
						CHANNELS 3 Xrotation Yrotation Zrotation
						End Site
						{
							OFFSET 0.000000 16.616566 0.000000
						}
					}
				}
			}
		}
	}
	JOINT RightUpLeg
	{
		OFFSET -19.899099 -7.885101 -3.429500
		CHANNELS 3 Xrotation Yrotation Zrotation
		JOINT RightLeg
		{
			OFFSET -1.745560 -36.997807 10.304700
			CHANNELS 3 Xrotation Yrotation Zrotation
			JOINT RightFoot
			{
				OFFSET 1.745558 -29.803308 -13.615400
				CHANNELS 3 Xrotation Yrotation Zrotation
				JOINT RightToeBase
				{
					OFFSET -1.181900 -18.539904 15.226099
					CHANNELS 3 Xrotation Yrotation Zrotation
					JOINT RightToe_End
					{
						OFFSET 0.863701 1.402801 16.534700
						CHANNELS 3 Xrotation Yrotation Zrotation
						End Site
						{
							OFFSET 0.000000 16.616566 0.000000
						}
					}
				}
			}
		}
	}
}
MOTION
Frames: 5
Frame Time: 0.033333
-6.417183 22.309212 308.650085 332.859161 -52.802038 28.767766 10.476927 -3.223561 -5.099173 7.433180 0.570948 -4.444441 7.798997 0.584104 -4.453105 4.927890 -3.941385 -4.467222 -6.304983 34.154221 -6.301787 0.000001 0.000002 -0.000001 -8.429224 -26.735469 -21.000108 -29.400297 -37.874963 -37.496987 35.027724 -56.364196 28.745357 4.442976 2.622610 6.719853 40.109880 -15.297249 -0.360503 5.639854 28.097887 11.338799 1.088521 40.896249 22.734063 0.000000 -0.000003 -0.000002 -17.946969 14.754998 -51.485959 8.868469 8.667024 -84.812023 4.540465 8.852525 -59.152969 0.000000 0.000001 -0.000000 -9.042523 10.045630 -60.766205 8.524103 9.508843 -66.892953 6.576596 9.896767 -70.385209 -0.000000 0.000000 0.000003 -2.345550 4.688846 -62.655251 8.754201 9.897111 -87.051335 1.995376 4.929219 -37.483409 0.000000 -0.000002 0.000008 6.882196 2.840012 -61.140411 8.247984 7.640056 -89.897878 2.146106 8.173447 -41.827737 -0.000000 0.000001 0.000001 3.231510 10.947237 -24.241192 -62.012100 22.351270 6.680890 -26.000935 44.387333 22.672374 41.295173 23.361209 -13.434973 -17.804835 -9.044240 6.528242 3.167274 -28.081764 -10.076297 -1.271922 1.873582 -1.320263 0.000005 -0.000001 -0.000002 0.964262 -0.237284 7.938339 0.446408 -2.067261 19.054645 0.206691 -4.324563 12.718461 0.000003 0.000002 0.000001 0.908633 -6.761181 8.379414 1.825355 -4.964008 29.438730 0.124538 0.028388 4.680097 -0.000001 -0.000002 -0.000004 1.817668 -11.714645 10.694420 1.888715 -3.932272 28.110514 1.373400 -4.477102 22.300202 -0.000002 -0.000002 -0.000003 4.262681 -22.603352 19.857225 3.542069 -2.739759 22.713893 5.794677 -4.513457 25.283533 -0.000001 -0.000002 0.000002 -78.366052 25.710746 4.057219 46.290986 -8.655970 5.354588 -11.587830 -11.703497 3.562271 -5.649344 27.105899 -1.846507 -0.000000 0.000000 -0.000003 -70.148372 -49.792622 3.618483 94.629389 -7.880750 -10.669774 31.505248 -1.964467 25.400015 1.432466 -9.849737 3.226170 0.000001 0.000000 0.000000 
-6.460794 20.135910 315.561035 347.661792 -56.581874 34.080817 11.466265 -3.972995 -5.404421 7.520600 -0.650347 -5.340362 7.809118 -0.637112 -5.348607 1.063652 -1.346442 -0.354352 -4.624661 43.952015 -11.582093 -0.000000 0.000000 0.000001 -5.824249 -26.380842 -14.071271 -36.880467 -28.119725 -33.661071 46.249297 -64.910983 41.843368 7.112498 6.346126 4.475823 40.109880 -15.297249 -0.360505 5.639849 28.097892 11.338800 1.088516 40.896246 22.734063 -0.000002 -0.000003 -0.000002 -17.946969 14.754993 -51.485963 8.868469 8.667024 -84.812030 4.540470 8.852528 -59.152969 -0.000002 -0.000003 -0.000003 -9.042522 10.045630 -60.766212 8.524094 9.508842 -66.892953 6.576597 9.896769 -70.385209 -0.000001 -0.000001 0.000001 -2.345549 4.688849 -62.655251 8.754201 9.897111 -87.051335 1.995374 4.929222 -37.483416 0.000001 -0.000001 0.000001 6.882197 2.840005 -61.140411 8.247986 7.640060 -89.897878 2.146103 8.173449 -41.827737 -0.000003 0.000001 0.000001 3.035970 12.484747 -18.544367 -59.495640 16.394004 -0.750905 -28.048049 48.227563 25.468317 44.291007 25.723952 -21.755040 -18.513515 -8.325194 6.498158 3.164808 -28.081259 -10.077723 -1.868591 4.082400 -0.137618 0.000002 -0.000001 0.000003 1.144189 0.376483 4.161954 0.393479 -1.909318 17.906973 0.166163 -4.135304 11.427681 -0.000004 -0.000001 -0.000001 0.801725 -6.298187 5.304252 1.687889 -4.715277 27.686968 0.105772 0.305832 2.990219 0.000001 -0.000000 -0.000004 1.434790 -11.756033 8.045924 1.776995 -3.737584 26.811786 1.251859 -4.186492 20.530574 0.000000 0.000001 -0.000003 3.978623 -22.674375 17.171463 3.449656 -2.501525 21.223766 5.730804 -4.340425 24.138794 -0.000001 0.000003 0.000006 -87.275795 16.173606 15.121023 43.241470 -17.984831 -0.099657 3.941338 -3.617724 -11.301364 -5.929667 21.780346 -2.764464 0.000001 0.000003 0.000001 -71.414190 -50.641314 4.018904 97.010809 0.177020 -9.322804 35.479496 1.266045 32.029380 11.705938 -8.079235 10.869422 -0.000000 0.000001 0.000003 
-7.513472 20.100525 324.196564 359.685330 -59.482820 37.621303 12.442832 -3.630711 -5.144600 7.641537 -2.102452 -6.535656 7.766902 -2.087425 -6.543355 -2.675460 0.038719 2.471231 -3.203138 52.917089 -13.963918 0.000000 -0.000000 -0.000001 -2.153212 -26.053736 -3.522560 -43.364478 -19.073168 -24.651819 75.313825 -67.745942 72.872572 0.080376 12.638736 -0.282084 40.109883 -15.297254 -0.360504 5.639860 28.097894 11.338804 1.088521 40.896243 22.734063 -0.000001 -0.000001 -0.000001 -17.946966 14.754998 -51.485966 8.868466 8.667029 -84.812030 4.540464 8.852524 -59.152963 -0.000000 0.000001 0.000003 -9.042523 10.045630 -60.766205 8.524097 9.508843 -66.892953 6.576593 9.896766 -70.385216 -0.000002 0.000000 0.000002 -2.345549 4.688844 -62.655251 8.754196 9.897105 -87.051335 1.995376 4.929219 -37.483412 0.000002 0.000001 0.000006 6.882199 2.840003 -61.140404 8.247987 7.640057 -89.897878 2.146102 8.173447 -41.827734 -0.000001 0.000003 0.000002 2.555982 12.978447 -14.243311 -57.961142 4.357706 -4.084121 -31.880164 53.628361 30.338249 47.141607 26.068247 -32.843620 -19.231921 -7.604398 6.481153 3.161970 -28.080704 -10.079596 -2.518069 6.296518 1.083211 0.000001 -0.000002 0.000006 1.371069 0.960572 0.347982 0.341529 -1.742954 16.706334 0.128342 -3.936393 10.078050 -0.000001 -0.000003 0.000003 0.719311 -5.829692 2.206149 1.557746 -4.460038 25.921787 0.094567 0.586059 1.286204 0.000001 -0.000000 -0.000004 1.048971 -11.777076 5.374677 1.669218 -3.538567 25.502847 1.139419 -3.889587 18.747329 -0.000001 -0.000000 -0.000003 3.661802 -22.689081 14.456679 3.364741 -2.259112 19.721568 5.671982 -4.164914 22.984790 0.000001 0.000000 -0.000003 -86.179659 6.394263 25.434916 27.891574 -14.267339 -0.220911 27.859375 -6.797056 -42.872230 -12.273175 14.365527 3.518954 0.000001 -0.000001 -0.000002 -67.300524 -54.968249 11.600518 106.280045 2.583668 -9.182963 28.302950 -1.350152 33.128422 11.522866 -7.634755 11.175612 0.000000 0.000001 0.000002 
-7.480015 20.143845 329.077911 367.464259 -61.051380 39.459745 13.316464 -4.029978 -5.525417 7.888125 -3.280256 -7.495147 7.749365 -3.265077 -7.501734 -5.039254 -0.361595 3.185515 -8.472352 61.632103 -9.447509 0.000000 -0.000000 -0.000002 1.488921 -25.638676 7.255335 -48.924894 -11.362606 -12.229957 88.972025 -65.484657 87.718590 -10.411924 15.695841 -2.935276 40.109880 -15.297254 -0.360503 5.639853 28.097885 11.338800 1.088516 40.896243 22.734063 -0.000003 -0.000001 -0.000001 -17.946969 14.754996 -51.485963 8.868469 8.667028 -84.812023 4.540466 8.852525 -59.152969 -0.000000 -0.000001 -0.000002 -9.042522 10.045630 -60.766205 8.524096 9.508844 -66.892960 6.576593 9.896766 -70.385209 0.000001 0.000001 0.000003 -2.345549 4.688844 -62.655251 8.754200 9.897109 -87.051328 1.995377 4.929219 -37.483416 0.000001 -0.000001 0.000004 6.882197 2.840003 -61.140411 8.247985 7.640057 -89.897878 2.146107 8.173447 -41.827737 -0.000001 0.000003 0.000002 2.016615 12.796835 -10.424101 -54.530601 -4.191328 -2.607771 -30.846797 52.340774 29.066936 46.796966 25.780178 -38.644476 -19.936272 -6.905915 6.477453 3.158961 -28.080122 -10.081682 -3.199947 8.441370 2.303649 0.000000 -0.000001 -0.000000 1.632658 1.493172 -3.376689 0.292049 -1.571994 15.480805 0.094595 -3.732508 8.700841 -0.000000 0.000004 0.000001 0.663380 -5.367080 -0.811056 1.439186 -4.207171 24.202021 0.091582 0.859421 -0.375165 -0.000000 -0.000000 -0.000004 0.673765 -11.778538 2.770086 1.568996 -3.342086 24.227309 1.039910 -3.596610 17.009965 0.000000 0.000002 -0.000003 3.332520 -22.654100 11.806405 3.290069 -2.020828 18.257494 5.620150 -3.992994 21.860114 -0.000000 -0.000001 0.000000 -91.170424 -3.310025 30.003826 38.447384 -12.914830 -0.603829 23.422010 0.221320 -46.123724 -6.135299 8.540042 1.748953 0.000003 -0.000001 -0.000002 -62.945241 -57.718596 15.654216 111.641395 3.563799 -9.852460 23.829364 -2.602286 34.411080 11.007927 -6.433295 14.156883 0.000001 0.000001 0.000002 
-7.993626 20.187950 334.669159 374.859087 -62.773106 41.339262 14.152353 -3.527937 -5.520742 8.567607 -3.675226 -7.757433 8.000602 -3.661292 -7.762499 -6.859535 -1.291859 2.826123 -17.948844 67.953566 -1.048120 -0.000000 -0.000000 -0.000001 4.119158 -25.015477 14.869405 -53.484858 -7.220390 0.235392 90.058995 -60.248771 89.064970 -23.872922 16.988171 -3.982643 40.109880 -15.297255 -0.360504 5.639852 28.097892 11.338802 1.088521 40.896243 22.734063 -0.000001 0.000001 0.000000 -17.946969 14.755000 -51.485959 8.868468 8.667029 -84.812023 4.540468 8.852520 -59.152969 0.000000 0.000000 -0.000002 -9.042524 10.045630 -60.766205 8.524094 9.508844 -66.892960 6.576594 9.896765 -70.385209 0.000000 -0.000001 0.000003 -2.345550 4.688845 -62.655251 8.754199 9.897108 -87.051328 1.995377 4.929220 -37.483412 -0.000000 0.000000 0.000004 6.882199 2.840004 -61.140411 8.247984 7.640063 -89.897878 2.146101 8.173447 -41.827740 0.000000 0.000003 0.000001 1.535466 12.202089 -6.887056 -50.096555 -9.028071 -0.052721 -27.142210 46.607415 24.273101 41.677753 25.437557 -38.451769 -20.602188 -6.253457 6.485536 3.155812 -28.079502 -10.084043 -3.886720 10.444038 3.481497 -0.000001 -0.000002 0.000002 1.911643 1.958161 -6.884111 0.246349 -1.400360 14.257946 0.065819 -3.528379 7.327383 -0.000001 0.000000 0.000001 0.633126 -4.933230 -3.645453 1.335256 -3.966020 22.586278 0.096030 1.116381 -1.937133 0.000000 0.000000 -0.000008 0.322790 -11.763152 0.321871 1.479049 -3.155205 23.028722 0.955598 -3.318404 15.377676 -0.000001 -0.000001 -0.000003 3.010883 -22.579905 9.314207 3.227166 -1.795336 16.881455 5.576301 -3.830623 20.803102 -0.000000 0.000000 0.000000 -98.347429 -12.255170 30.141099 47.876904 -14.978463 -0.848228 26.204980 -1.345869 -46.635620 -7.498010 8.567239 -0.200951 -0.000003 0.000000 0.000001 -56.342429 -62.381532 17.347318 118.223416 4.762414 -11.388646 17.991256 -2.391903 31.688509 10.530058 -4.447289 14.517625 0.000000 -0.000000 0.000003 
